<svg xmlns="http://www.w3.org/2000/svg" width="205.472" height="42.666" viewBox="0 0 205.472 42.666">
  <g id="estado-enconstruccion" transform="translate(0.562 0.562)">
    <text id="EN_CONSTRUCCIÓN" data-name="EN CONSTRUCCIÓN" transform="translate(130.91 24.179)" fill="#e20613" font-size="13" font-family="GillSans-SemiBold, Gill Sans" font-weight="600" letter-spacing="0.1em"><tspan x="-73.824" y="0">EN CONSTRUCCIÓN</tspan></text>
    <g id="Grupo_16300" data-name="Grupo 16300">
      <path id="Trazado_8536" data-name="Trazado 8536" d="M29.9,23.054a15.945,15.945,0,0,1,7.035-2.924V15.21a20.809,20.809,0,0,0-10.52,4.359Z" transform="translate(-18.601 -15.21)" fill="none" stroke="#e20613" stroke-width="1"/>
      <path id="Trazado_8537" data-name="Trazado 8537" d="M20.13,36.932A15.953,15.953,0,0,1,23.054,29.9l-3.485-3.485a20.812,20.812,0,0,0-4.359,10.52Z" transform="translate(-15.21 -18.601)" fill="none" stroke="#e20613" stroke-width="1"/>
      <path id="Trazado_8538" data-name="Trazado 8538" d="M67.025,26.412,63.54,29.9a15.94,15.94,0,0,1,2.924,7.036h4.92A20.809,20.809,0,0,0,67.025,26.412Z" transform="translate(-29.842 -18.601)" fill="#e20613"/>
      <path id="Trazado_8539" data-name="Trazado 8539" d="M48.5,20.13a15.956,15.956,0,0,1,7.036,2.924l3.485-3.485A20.814,20.814,0,0,0,48.5,15.21Z" transform="translate(-25.288 -15.21)" fill="#e20613"/>
      <path id="Trazado_8540" data-name="Trazado 8540" d="M66.464,48.5a15.948,15.948,0,0,1-2.924,7.036l3.485,3.485A20.814,20.814,0,0,0,71.384,48.5Z" transform="translate(-29.842 -25.288)" fill="#e20613"/>
      <path id="Trazado_8541" data-name="Trazado 8541" d="M55.536,63.54A15.936,15.936,0,0,1,48.5,66.464v4.92a20.814,20.814,0,0,0,10.521-4.359Z" transform="translate(-25.288 -29.842)" fill="#e20613"/>
      <path id="Trazado_8542" data-name="Trazado 8542" d="M23.054,55.536A15.945,15.945,0,0,1,20.13,48.5H15.21a20.814,20.814,0,0,0,4.359,10.521Z" transform="translate(-15.21 -25.288)" fill="none" stroke="#e20613" stroke-width="1"/>
      <path id="Trazado_8543" data-name="Trazado 8543" d="M36.932,66.464A15.951,15.951,0,0,1,29.9,63.54l-3.485,3.485a20.812,20.812,0,0,0,10.52,4.359v-4.92Z" transform="translate(-18.601 -29.842)" fill="none" stroke="#e20613" stroke-width="1"/>
    </g>
  </g>
</svg>
