<?xml version="1.0" encoding="utf-8"?>
<!-- Generator: Adobe Illustrator 24.3.0, SVG Export Plug-In . SVG Version: 6.00 Build 0)  -->
<svg version="1.1" id="Capa_1" xmlns="http://www.w3.org/2000/svg" xmlns:xlink="http://www.w3.org/1999/xlink" x="0px" y="0px"
	 viewBox="0 0 205.5 42.7" style="enable-background:new 0 0 205.5 42.7;" xml:space="preserve">
<style type="text/css">
	.st0{enable-background:new    ;}
	.st1{fill:#E20613;}
	.st2{fill:none;stroke:#E20613;}
</style>
<g id="estado-enconstruccion" transform="translate(0.562 0.562)">
	<g class="st0">
		<path class="st1" d="M63.8,15.3v1.3h-4V19h3.8v1.3h-3.8v2.5h4.1v1.3h-5.8v-8.9H63.8z"/>
		<path class="st1" d="M68.3,15.3l5.3,6.2v-6.2h1.7v8.9h-1.5l-5.3-6.3v6.3h-1.7v-8.9H68.3z"/>
		<path class="st1" d="M88,15.2c0.5,0,1,0.1,1.5,0.2s1,0.3,1.6,0.6v1.6c-0.5-0.3-1.1-0.5-1.5-0.7c-0.5-0.1-0.9-0.2-1.5-0.2
			c-0.6,0-1.2,0.1-1.7,0.4c-0.5,0.3-0.9,0.6-1.2,1.1c-0.3,0.5-0.4,1-0.4,1.6c0,0.6,0.1,1.1,0.4,1.6c0.3,0.5,0.7,0.8,1.2,1.1
			s1.1,0.4,1.7,0.4c0.5,0,1-0.1,1.4-0.2c0.4-0.1,1-0.4,1.7-0.8v1.6c-0.6,0.3-1.1,0.5-1.6,0.6s-1,0.2-1.7,0.2c-0.9,0-1.8-0.2-2.5-0.6
			s-1.3-0.9-1.7-1.6c-0.4-0.7-0.6-1.5-0.6-2.3c0-0.9,0.2-1.7,0.7-2.4c0.4-0.7,1-1.3,1.8-1.6C86.2,15.4,87.1,15.2,88,15.2z"/>
		<path class="st1" d="M98.5,15.2c0.9,0,1.7,0.2,2.5,0.6c0.7,0.4,1.3,0.9,1.8,1.6c0.4,0.7,0.7,1.5,0.7,2.3c0,0.8-0.2,1.6-0.6,2.3
			c-0.4,0.7-1,1.3-1.8,1.7c-0.7,0.4-1.6,0.6-2.5,0.6c-0.9,0-1.8-0.2-2.5-0.6c-0.8-0.4-1.3-0.9-1.8-1.6s-0.6-1.5-0.6-2.3
			c0-0.8,0.2-1.6,0.6-2.3c0.4-0.7,1-1.3,1.7-1.7S97.6,15.2,98.5,15.2z M95.4,19.7c0,0.6,0.1,1.1,0.4,1.6s0.6,0.8,1.1,1.1
			c0.5,0.3,1,0.4,1.6,0.4c0.9,0,1.7-0.3,2.2-0.9c0.6-0.6,0.9-1.3,0.9-2.2c0-0.6-0.1-1.1-0.4-1.6c-0.3-0.5-0.6-0.8-1.1-1.1
			c-0.5-0.3-1-0.4-1.6-0.4s-1.1,0.1-1.6,0.4c-0.5,0.3-0.8,0.6-1.1,1.1S95.4,19.2,95.4,19.7z"/>
		<path class="st1" d="M107.8,15.3l5.3,6.2v-6.2h1.7v8.9h-1.5l-5.3-6.3v6.3h-1.7v-8.9H107.8z"/>
		<path class="st1" d="M120.6,15.2c0.9,0,1.7,0.2,2.5,0.6v1.5c-0.9-0.6-1.7-0.8-2.4-0.8c-0.4,0-0.8,0.1-1,0.3
			c-0.2,0.2-0.4,0.4-0.4,0.7c0,0.3,0.2,0.6,0.7,0.9c0.1,0.1,0.6,0.3,1.5,0.7c0.7,0.3,1.3,0.7,1.6,1.1c0.3,0.4,0.5,0.9,0.5,1.5
			c0,0.8-0.3,1.4-0.8,1.8s-1.3,0.7-2.1,0.7c-0.6,0-1.1-0.1-1.5-0.2s-0.9-0.3-1.4-0.6v-1.7c0.9,0.8,1.8,1.2,2.7,1.2
			c0.4,0,0.8-0.1,1-0.3c0.3-0.2,0.4-0.4,0.4-0.7c0-0.4-0.2-0.7-0.7-1c-0.4-0.2-0.9-0.4-1.4-0.7c-0.7-0.3-1.2-0.7-1.6-1.1
			c-0.3-0.4-0.5-0.9-0.5-1.5c0-0.7,0.3-1.3,0.8-1.8C119,15.4,119.7,15.2,120.6,15.2z"/>
		<path class="st1" d="M133.4,15.3v1.3h-3.1v7.5h-1.7v-7.5h-3.1v-1.3H133.4z"/>
		<path class="st1" d="M139.2,15.3c0.8,0,1.5,0.2,2,0.7s0.8,1.1,0.8,1.8c0,0.5-0.1,0.9-0.4,1.3c-0.3,0.4-0.6,0.7-1.2,0.9
			c0.3,0.2,0.5,0.4,0.8,0.6c0.2,0.3,0.5,0.7,0.8,1.3c0.5,1.1,0.9,1.8,1.2,2.2h-1.9c-0.1-0.2-0.3-0.5-0.5-0.9
			c-0.5-0.9-0.9-1.6-1.1-1.9s-0.4-0.6-0.7-0.7c-0.2-0.1-0.5-0.2-0.7-0.2h-0.6v3.7H136v-8.9H139.2z M138.8,19.1
			c0.4,0,0.8-0.1,1.1-0.3s0.4-0.5,0.4-0.9c0-0.4-0.1-0.7-0.4-0.9s-0.6-0.3-1.1-0.3h-1.1v2.5H138.8z"/>
		<path class="st1" d="M147,15.3v5.2c0,0.5,0.1,1,0.2,1.3c0.2,0.3,0.4,0.6,0.8,0.8s0.8,0.3,1.3,0.3c0.5,0,1-0.1,1.3-0.3
			s0.6-0.5,0.8-0.8c0.2-0.3,0.3-0.8,0.3-1.4v-5h1.7v5.3c0,1.2-0.4,2.1-1.1,2.8c-0.7,0.6-1.7,1-3,1c-0.8,0-1.5-0.1-2.1-0.4
			c-0.6-0.3-1.1-0.7-1.4-1.3c-0.3-0.6-0.5-1.2-0.5-1.9v-5.3H147z"/>
		<path class="st1" d="M161.3,15.2c0.5,0,1,0.1,1.5,0.2s1,0.3,1.6,0.6v1.6c-0.5-0.3-1.1-0.5-1.5-0.7c-0.5-0.1-0.9-0.2-1.5-0.2
			c-0.6,0-1.2,0.1-1.7,0.4c-0.5,0.3-0.9,0.6-1.2,1.1c-0.3,0.5-0.4,1-0.4,1.6c0,0.6,0.1,1.1,0.4,1.6c0.3,0.5,0.7,0.8,1.2,1.1
			s1.1,0.4,1.7,0.4c0.5,0,1-0.1,1.4-0.2s1-0.4,1.7-0.8v1.6c-0.6,0.3-1.1,0.5-1.6,0.6s-1,0.2-1.7,0.2c-0.9,0-1.8-0.2-2.5-0.6
			s-1.3-0.9-1.7-1.6s-0.6-1.5-0.6-2.3c0-0.9,0.2-1.7,0.7-2.4s1-1.3,1.8-1.6S160.3,15.2,161.3,15.2z"/>
		<path class="st1" d="M171.9,15.2c0.5,0,1,0.1,1.5,0.2s1,0.3,1.6,0.6v1.6c-0.5-0.3-1.1-0.5-1.5-0.7c-0.5-0.1-0.9-0.2-1.5-0.2
			c-0.6,0-1.2,0.1-1.7,0.4c-0.5,0.3-0.9,0.6-1.2,1.1c-0.3,0.5-0.4,1-0.4,1.6c0,0.6,0.1,1.1,0.4,1.6c0.3,0.5,0.7,0.8,1.2,1.1
			s1.1,0.4,1.7,0.4c0.5,0,1-0.1,1.4-0.2s1-0.4,1.7-0.8v1.6c-0.6,0.3-1.1,0.5-1.6,0.6s-1,0.2-1.7,0.2c-0.9,0-1.8-0.2-2.5-0.6
			s-1.3-0.9-1.7-1.6s-0.6-1.5-0.6-2.3c0-0.9,0.2-1.7,0.7-2.4s1-1.3,1.8-1.6S170.9,15.2,171.9,15.2z"/>
		<path class="st1" d="M179.7,15.3v8.9H178v-8.9H179.7z"/>
		<path class="st1" d="M187.5,15.2c0.9,0,1.7,0.2,2.5,0.6s1.3,0.9,1.8,1.6c0.4,0.7,0.7,1.5,0.7,2.3c0,0.8-0.2,1.6-0.6,2.3
			c-0.4,0.7-1,1.3-1.8,1.7c-0.7,0.4-1.6,0.6-2.5,0.6c-0.9,0-1.8-0.2-2.5-0.6s-1.3-0.9-1.8-1.6c-0.4-0.7-0.6-1.5-0.6-2.3
			c0-0.8,0.2-1.6,0.6-2.3c0.4-0.7,1-1.3,1.7-1.7S186.6,15.2,187.5,15.2z M184.4,19.7c0,0.6,0.1,1.1,0.4,1.6s0.6,0.8,1.1,1.1
			c0.5,0.3,1,0.4,1.6,0.4c0.9,0,1.7-0.3,2.2-0.9s0.9-1.3,0.9-2.2c0-0.6-0.1-1.1-0.4-1.6s-0.6-0.8-1.1-1.1c-0.5-0.3-1-0.4-1.6-0.4
			s-1.1,0.1-1.6,0.4c-0.5,0.3-0.8,0.6-1.1,1.1S184.4,19.2,184.4,19.7z M189.7,12.5l-2.4,2.2h-1l1.2-2.2H189.7z"/>
		<path class="st1" d="M196.8,15.3l5.3,6.2v-6.2h1.7v8.9h-1.5l-5.3-6.3v6.3h-1.7v-8.9H196.8z"/>
	</g>
	<g id="Grupo_16300">
		<path id="Trazado_8536" class="st2" d="M11.3,7.8c2.1-1.5,4.5-2.5,7-2.9V0c-3.8,0.4-7.5,2-10.5,4.4L11.3,7.8z"/>
		<path id="Trazado_8537" class="st2" d="M4.9,18.3c0.4-2.5,1.4-5,2.9-7L4.4,7.8C2,10.8,0.4,14.5,0,18.3L4.9,18.3z"/>
		<path id="Trazado_8538" class="st1" d="M37.2,7.8l-3.5,3.5c1.5,2.1,2.5,4.5,2.9,7h4.9C41.1,14.5,39.6,10.8,37.2,7.8z"/>
		<path id="Trazado_8539" class="st1" d="M23.2,4.9c2.5,0.4,5,1.4,7,2.9l3.5-3.5C30.7,2,27.1,0.4,23.2,0V4.9z"/>
		<path id="Trazado_8540" class="st1" d="M36.6,23.2c-0.4,2.5-1.4,5-2.9,7l3.5,3.5c2.4-3,3.9-6.7,4.4-10.5H36.6z"/>
		<path id="Trazado_8541" class="st1" d="M30.2,33.7c-2.1,1.5-4.5,2.5-7,2.9v4.9c3.8-0.4,7.5-2,10.5-4.4L30.2,33.7z"/>
		<path id="Trazado_8542" class="st2" d="M7.8,30.2c-1.5-2.1-2.5-4.5-2.9-7H0c0.4,3.8,2,7.5,4.4,10.5L7.8,30.2z"/>
		<path id="Trazado_8543" class="st2" d="M18.3,36.6c-2.5-0.4-5-1.4-7-2.9l-3.5,3.5c3,2.4,6.7,3.9,10.5,4.4L18.3,36.6L18.3,36.6z"/>
	</g>
</g>
</svg>
