<svg xmlns="http://www.w3.org/2000/svg" xmlns:xlink="http://www.w3.org/1999/xlink" width="50" height="50" viewBox="0 0 50 50">
  <defs>
    <clipPath id="clip-path">
      <rect id="Rectángulo_304" data-name="Rectángulo 304" width="31.1" height="31.11" fill="none"/>
    </clipPath>
  </defs>
  <g id="ico-deposito" transform="translate(2951 -11805)">
    <g id="Ilustración_7" data-name="Ilustración 7" transform="translate(-2926.45 11829.555)">
      <g id="Grupo_229" data-name="Grupo 229" transform="translate(-15.55 -15.555)" clip-path="url(#clip-path)">
        <path id="Trazado_122" data-name="Trazado 122" d="M29.7,0H1.4A1.4,1.4,0,0,0,0,1.4V26.9a1.4,1.4,0,0,0,1.4,1.4h2v2.3a.4.4,0,0,0,.5.5h5a.4.4,0,0,0,.5-.5V28.3H21.8v2.3a.4.4,0,0,0,.5.5h5a.4.4,0,0,0,.5-.5V28.3h2a1.4,1.4,0,0,0,1.4-1.4V1.4A1.4,1.4,0,0,0,29.7,0M.9,26.9V1.4A.5.5,0,0,1,1.4.9H9.9V27.4H1.4a.5.5,0,0,1-.5-.5m7.4,3.3h-4V28.3H8.4Zm18.4,0h-4V28.3h4.1Zm3.4-3.3a.5.5,0,0,1-.5.5H21.2v-1a.5.5,0,0,0-.9,0v1H10.9V.9h9.3V11.4a.5.5,0,1,0,.9,0V.9h8.6a.5.5,0,0,1,.5.5Z" fill="#e20613"/>
        <path id="Trazado_123" data-name="Trazado 123" d="M2.2,4.7H8.4a.4.4,0,0,0,.5-.5.4.4,0,0,0-.5-.5H2.2a.4.4,0,0,0-.5.5.4.4,0,0,0,.5.5" fill="#e20613"/>
        <path id="Trazado_124" data-name="Trazado 124" d="M2.2,7.7H8.4a.5.5,0,0,0,0-.9H2.2a.5.5,0,1,0,0,.9" fill="#e20613"/>
        <path id="Trazado_125" data-name="Trazado 125" d="M8.9,10.2a.4.4,0,0,0-.5-.5H2.2a.5.5,0,1,0,0,.9H8.4a.5.5,0,0,0,.5-.5" fill="#e20613"/>
        <path id="Trazado_126" data-name="Trazado 126" d="M12.3,4.7h6.2a.4.4,0,0,0,.5-.5.4.4,0,0,0-.5-.5H12.3a.4.4,0,0,0-.5.5.4.4,0,0,0,.5.5" fill="#e20613"/>
        <path id="Trazado_127" data-name="Trazado 127" d="M12.3,7.7h6.2a.5.5,0,0,0,0-.9H12.3a.5.5,0,1,0,0,.9" fill="#e20613"/>
        <path id="Trazado_128" data-name="Trazado 128" d="M28.7,3.7H22.4a.4.4,0,0,0-.5.5.4.4,0,0,0,.5.5h6.2a.4.4,0,0,0,.5-.5.5.5,0,0,0-.5-.5" fill="#e20613"/>
        <path id="Trazado_129" data-name="Trazado 129" d="M28.7,6.7H22.4a.5.5,0,0,0,0,.9h6.2a.4.4,0,0,0,.5-.5.5.5,0,0,0-.5-.5" fill="#e20613"/>
        <path id="Trazado_130" data-name="Trazado 130" d="M19,10.2a.4.4,0,0,0-.5-.5H12.3a.5.5,0,1,0,0,.9h6.2a.5.5,0,0,0,.5-.5" fill="#e20613"/>
        <path id="Trazado_131" data-name="Trazado 131" d="M28.7,9.8H22.4a.5.5,0,0,0,0,.9h6.2a.4.4,0,0,0,.5-.5.5.5,0,0,0-.5-.5" fill="#e20613"/>
        <path id="Trazado_132" data-name="Trazado 132" d="M25.2,16.8H23.9v-1a3.3,3.3,0,0,0-6.5,0v1H16.2a.4.4,0,0,0-.5.5v6.9A1.3,1.3,0,0,0,17,25.4h7.5a1.3,1.3,0,0,0,1.3-1.3V17.3a.6.6,0,0,0-.5-.5m-6.9-1a2.3,2.3,0,0,1,4.6-.1v1H18.3v-1Zm6.4,8.4a.3.3,0,0,1-.3.3H16.9a.3.3,0,0,1-.3-.3V17.7h8.1v6.4Z" fill="#e20613"/>
        <path id="Trazado_133" data-name="Trazado 133" d="M8.1,16.4a.4.4,0,0,0-.5.5V21a.5.5,0,1,0,.9,0V16.9a.5.5,0,0,0-.5-.5" fill="#e20613"/>
        <path id="Trazado_134" data-name="Trazado 134" d="M28.4,16.4a.4.4,0,0,0-.5.5V21a.5.5,0,1,0,.9,0V16.9a.5.5,0,0,0-.5-.5" fill="#e20613"/>
        <path id="Trazado_135" data-name="Trazado 135" d="M20.7,20.6a1.5,1.5,0,1,0,1.5,1.5,1.4,1.4,0,0,0-1.5-1.5m0,2a.5.5,0,1,1,.5-.5.5.5,0,0,1-.5.5" fill="#e20613"/>
      </g>
    </g>
    <rect id="Rectángulo_818" data-name="Rectángulo 818" width="50" height="50" transform="translate(-2951 11805)" fill="none" opacity="0.53"/>
  </g>
</svg>
