<svg xmlns="http://www.w3.org/2000/svg" xmlns:xlink="http://www.w3.org/1999/xlink" width="50" height="50" viewBox="0 0 50 50">
  <defs>
    <clipPath id="clip-path">
      <rect id="Rectángulo_288" data-name="Rectángulo 288" width="38" height="32.52" fill="none"/>
    </clipPath>
  </defs>
  <g id="ico-habitaciones" transform="translate(2951 -11724)">
    <g id="Ilustración_1" data-name="Ilustración 1" transform="translate(-2926 11749.26)">
      <g id="Grupo_219" data-name="Grupo 219" transform="translate(-19 -16.26)" clip-path="url(#clip-path)">
        <path id="Trazado_83" data-name="Trazado 83" d="M37.4,31.3H35.6V23.9a.6.6,0,0,0-.6-.6H32.5a.6.6,0,0,0,0-1.2H31.3V20.9h2.5l.5-.2a.6.6,0,0,0,.2-.5l-.6-6.1a.6.6,0,0,0-.6-.6H28.2a.6.6,0,0,0-.6.6L27,20.2a.6.6,0,0,0,.2.5l.5.2h2.5v1.2H28.8a.6.6,0,1,0,0,1.2H27a.6.6,0,0,0-.6.6v7.4H25.2V27a.6.6,0,0,0,.6-.6v-.6a2.5,2.5,0,0,0-1.2-2.1V18.4A2.5,2.5,0,0,0,22.1,16H6.1a2.5,2.5,0,0,0-2.5,2.5v5.2a2.5,2.5,0,0,0-1.2,2.1v.6A.6.6,0,0,0,3,27v4.3H.6a.6.6,0,1,0,0,1.2H37.4a.6.6,0,0,0,0-1.2M4.9,18.4a1.2,1.2,0,0,1,1.2-1.2h16a1.2,1.2,0,0,1,1.2,1.2v4.9H20.8A1.8,1.8,0,0,0,19,20.9H16.6a1.8,1.8,0,0,0-1.7,2.5H13.4a1.8,1.8,0,0,0-1.7-2.5H9.2a1.8,1.8,0,0,0-1.7,2.5H4.9Zm14.7,4.3a.6.6,0,0,1-.6.6H16.6a.6.6,0,1,1,0-1.2H19a.6.6,0,0,1,.6.6m-7.4,0a.6.6,0,0,1-.6.6H9.2a.6.6,0,0,1,0-1.2h2.5a.6.6,0,0,1,.6.6M24,31.3H4.3v-.6H23.9Zm0-1.8H4.3V27H23.9ZM3.7,25.8a1.2,1.2,0,0,1,1.2-1.2H23.3a1.2,1.2,0,0,1,1.2,1.2Zm24.6-6.1.5-4.9h3.8l.5,4.9Zm6.1,11.7H27.6V27h6.8Zm0-5.5H27.6V24.5h6.8Z" fill="#e20613"/>
        <path id="Trazado_84" data-name="Trazado 84" d="M22.1,0H6.1a.6.6,0,0,0-.6.6v11a.6.6,0,0,0,.6.6h16a.6.6,0,0,0,.6-.6V.6a.6.6,0,0,0-.6-.6M7.5,11l2.9-3.4,3,3.4Zm14,0H15L12.6,8.4h0L17,4l4.4,4.5Zm0-4.3-4-4-.4-.2-.4.2L11.8,7.5l-1-1.1-.5-.2-.5.2L6.7,10V1.2H21.5Z" fill="#e20613"/>
        <path id="Trazado_85" data-name="Trazado 85" d="M10.4,5.5A1.8,1.8,0,1,0,8.6,3.7a1.8,1.8,0,0,0,1.8,1.8m0-2.5a.6.6,0,1,1-.62.424A.6.6,0,0,1,10.4,3" fill="#e20613"/>
      </g>
    </g>
    <rect id="Rectángulo_815" data-name="Rectángulo 815" width="50" height="50" transform="translate(-2951 11724)" fill="none" opacity="0.53"/>
  </g>
</svg>
