<svg xmlns="http://www.w3.org/2000/svg" width="50" height="50" viewBox="0 0 50 50">
  <g id="ico-parqueaderos" transform="translate(2773 -11724)">
    <g id="Grupo_16969" data-name="Grupo 16969" transform="translate(-2949.545 11675.191)">
      <g id="Grupo_16943" data-name="Grupo 16943" transform="translate(199.506 65.13)">
        <path id="Trazado_8899" data-name="Trazado 8899" d="M225.3,88.282h-2.915V78.494h2.787c.532,0,1.1.043,1.626.088l.05.006a5.163,5.163,0,0,1,1.641.577l.083.055a5.045,5.045,0,0,1,1.264,1.5l.008.014a5.309,5.309,0,0,1,.542,2.463,6.694,6.694,0,0,1-.282,1.969,4.407,4.407,0,0,1-.937,1.633,4.136,4.136,0,0,1-1.6,1.1A6.3,6.3,0,0,1,225.3,88.282Zm-1.682-1.233H225.3a5.085,5.085,0,0,0,1.822-.3,2.942,2.942,0,0,0,1.123-.771,3.178,3.178,0,0,0,.68-1.176,5.45,5.45,0,0,0,.228-1.606,4.086,4.086,0,0,0-.391-1.872,2.5,2.5,0,0,0-2.092-1.517c-.5-.041-1.021-.081-1.5-.081h-1.554Z" transform="translate(-222.388 -78.494)" fill="#e20613"/>
      </g>
      <g id="Grupo_16944" data-name="Grupo 16944" transform="translate(183.545 55.809)">
        <path id="Trazado_8900" data-name="Trazado 8900" d="M201.612,91.943a18.067,18.067,0,1,1,18.067-18.067A18.087,18.087,0,0,1,201.612,91.943Zm0-34.9a16.834,16.834,0,1,0,16.834,16.835A16.854,16.854,0,0,0,201.612,57.042Zm-4.086,30.773a10.891,10.891,0,0,1-1.311-.047,3.842,3.842,0,0,1-.962-.21l-.047-.019a1.307,1.307,0,0,1-.628-.42,1.11,1.11,0,0,1-.265-.73V63.619a2.473,2.473,0,0,1,.648-1.8,2.441,2.441,0,0,1,1.713-.649h5.959c.62,0,1.194.044,1.75.087a14.454,14.454,0,0,1,2.045.311,7.689,7.689,0,0,1,2.464.914,6.992,6.992,0,0,1,2.167,1.667,6.739,6.739,0,0,1,1.356,2.389,8.618,8.618,0,0,1,.454,2.952,10.076,10.076,0,0,1-.726,3.976,8.1,8.1,0,0,1-2.063,2.984,8.746,8.746,0,0,1-3.348,1.844,15.318,15.318,0,0,1-4.524.623H200.7V86.39a1.1,1.1,0,0,1-.308.776,1.807,1.807,0,0,1-.633.392,3.921,3.921,0,0,1-.908.208A11.145,11.145,0,0,1,197.526,87.815Zm-1.98-1.467c.032.015.071.028.115.046l.051.02a2.884,2.884,0,0,0,.656.131,9.993,9.993,0,0,0,1.158.038,10.509,10.509,0,0,0,1.158-.038,2.951,2.951,0,0,0,.613-.131,1.122,1.122,0,0,0,.166-.08V77.686h2.744a14.077,14.077,0,0,0,4.159-.568,7.531,7.531,0,0,0,2.878-1.572A6.868,6.868,0,0,0,211,73.016L211,73a8.869,8.869,0,0,0,.632-3.505,7.453,7.453,0,0,0-.388-2.554,5.56,5.56,0,0,0-1.121-1.98,5.807,5.807,0,0,0-1.81-1.385,6.606,6.606,0,0,0-2.124-.795,13.444,13.444,0,0,0-1.9-.291c-.557-.043-1.084-.083-1.656-.083h-5.959a1.2,1.2,0,0,0-.871.316,1.333,1.333,0,0,0-.258.9Z" transform="translate(-183.545 -55.809)" fill="#e20613"/>
      </g>
    </g>
    <rect id="Rectángulo_817" data-name="Rectángulo 817" width="50" height="50" transform="translate(-2773 11724)" fill="none" opacity="0.53"/>
  </g>
</svg>
