<svg xmlns="http://www.w3.org/2000/svg" width="18.86" height="17.522" viewBox="0 0 18.86 17.522">
  <path id="corazon-linea" d="M647.59,504.9a5.153,5.153,0,0,0-7.282-.271c-.094.087-.184.177-.271.271l-.333.352-.331-.353a5.156,5.156,0,0,0-7.288-.268c-.092.086-.182.175-.268.268a5.784,5.784,0,0,0,0,7.864l7.4,7.8a.673.673,0,0,0,.953.026h0l.026-.026,7.4-7.8A5.782,5.782,0,0,0,647.59,504.9Zm-1.445,6.486-6.438,6.787-6.423-6.77a3.8,3.8,0,0,1,0-5.144c.052-.056.107-.11.163-.163a3.157,3.157,0,0,1,4.468.171l.331.353,1.453,1.549,1.459-1.543.346-.366c.053-.057.108-.112.166-.165a3.153,3.153,0,0,1,4.456.166A3.793,3.793,0,0,1,646.145,511.382Z" transform="translate(-630.275 -503.248)" fill="#e20613"/>
</svg>
