<svg xmlns="http://www.w3.org/2000/svg" xmlns:xlink="http://www.w3.org/1999/xlink" width="222.2" height="35.19" viewBox="0 0 222.2 35.19">
  <defs>
    <clipPath id="clip-path">
      <rect id="Rectángulo_326" data-name="Rectángulo 326" width="222.2" height="35.19" fill="none"/>
    </clipPath>
  </defs>
  <g id="cusezar-logo" transform="translate(111.1 17.595)">
    <g id="Ilustración_8" data-name="Ilustración 8" transform="translate(-111.1 -17.595)">
      <path id="Trazado_187" data-name="Trazado 187" d="M128.1,5.8v6.9h13.7l-15,22h29.4V27.8H141.3l14.9-22Z" transform="translate(0 0)" fill="#fff"/>
      <path id="Trazado_188" data-name="Trazado 188" d="M175,13.2l4.2,10.5h-8.5Zm-4.9-7.5-12.7,29h8.9l2.4-5.9h12.6l2.4,5.9h8.9L179.8,5.8Z" transform="translate(0 0)" fill="#fff"/>
      <g id="Grupo_248" data-name="Grupo 248" clip-path="url(#clip-path)">
        <path id="Trazado_189" data-name="Trazado 189" d="M222.2,34.7h-9.4l-2.3-5.1a21.1,21.1,0,0,0-2.2-4.1,4.7,4.7,0,0,0-2-1.7,6.7,6.7,0,0,0-2.4-.4h-1V34.7h-8.7V5.8H209a10.8,10.8,0,0,1,5.9,1.5,8.7,8.7,0,0,1,3.3,3.5,9,9,0,0,1,1,4,7.5,7.5,0,0,1-.9,3.7,6.7,6.7,0,0,1-1.8,2.2l-2,1.3a8.1,8.1,0,0,1,2.3,1.9,23.3,23.3,0,0,1,2.5,4.5ZM210.4,14.9a3,3,0,0,0-1.3-2.8,8.7,8.7,0,0,0-4.3-.8H203v7h1.9a9.5,9.5,0,0,0,4.4-.7,2.9,2.9,0,0,0,1.2-2.7" transform="translate(0 0)" fill="#fff" fill-rule="evenodd"/>
        <rect id="Rectángulo_323" data-name="Rectángulo 323" width="36" height="9.85" transform="translate(88.1 24.8)" fill="#fef69f"/>
        <rect id="Rectángulo_324" data-name="Rectángulo 324" width="36" height="9.85" transform="translate(88.1 12.4)" fill="#fef69f"/>
        <rect id="Rectángulo_325" data-name="Rectángulo 325" width="36" height="9.85" transform="translate(88.1)" fill="#fef69f"/>
        <path id="Trazado_190" data-name="Trazado 190" d="M27.8,32.5A20.7,20.7,0,0,1,24.1,34a22.4,22.4,0,0,1-3.8.8l-3.9.3a20.6,20.6,0,0,1-6.8-1A14.8,14.8,0,0,1,4.4,31a13.3,13.3,0,0,1-3.3-4.8,16.1,16.1,0,0,1-1.1-6,15.4,15.4,0,0,1,1.3-6.5A12.6,12.6,0,0,1,4.9,9a15.5,15.5,0,0,1,5.3-2.7,21.7,21.7,0,0,1,6.3-.9A34.2,34.2,0,0,1,27.6,7.6v7.7A29.8,29.8,0,0,0,23.4,13a12.4,12.4,0,0,0-4.9-.9,11.2,11.2,0,0,0-4.7,1A8.7,8.7,0,0,0,10.2,16a7.2,7.2,0,0,0-1.3,4.3,7.3,7.3,0,0,0,1.2,4,8.4,8.4,0,0,0,3.2,2.9A10.2,10.2,0,0,0,18,28.3a15.4,15.4,0,0,0,4-.5,18.3,18.3,0,0,0,3.1-1.1l2.6-1.5Z" transform="translate(0 0)" fill="#fff" fill-rule="evenodd"/>
        <path id="Trazado_191" data-name="Trazado 191" d="M61.3,21.7A13.3,13.3,0,0,1,59.9,28a11.1,11.1,0,0,1-3.7,4.1,15.7,15.7,0,0,1-4.9,2.2A21.4,21.4,0,0,1,46,35a21,21,0,0,1-7.2-1.3A12.7,12.7,0,0,1,33,29.4a12.4,12.4,0,0,1-2.3-7.8V5.8h8.7V19.5a12,12,0,0,0,.8,4.7,5.8,5.8,0,0,0,2.3,2.7,6.8,6.8,0,0,0,3.5.9,6.7,6.7,0,0,0,3.4-.9,5.6,5.6,0,0,0,2.3-2.7,11.5,11.5,0,0,0,.8-4.7V5.8h8.7Z" transform="translate(0 0)" fill="#fff" fill-rule="evenodd"/>
        <path id="Trazado_192" data-name="Trazado 192" d="M86,25.5a7.9,7.9,0,0,1-1.1,4.8,8.8,8.8,0,0,1-3.6,3.3,15.5,15.5,0,0,1-5.7,1.5,28.9,28.9,0,0,1-11.5-1.2V27.2A21.1,21.1,0,0,0,73.8,29a4.1,4.1,0,0,0,3-1,2.2,2.2,0,0,0,.6-1.4,2.3,2.3,0,0,0-1.4-2,15.7,15.7,0,0,0-3.4-1.4,26.4,26.4,0,0,1-4.3-1.9,10.1,10.1,0,0,1-3.1-2.7,7.6,7.6,0,0,1-1.4-4.1,7.9,7.9,0,0,1,.8-4.3,8,8,0,0,1,3.3-3.3,14.2,14.2,0,0,1,5.7-1.6A28.1,28.1,0,0,1,84,6.2v6.6a19.2,19.2,0,0,0-8.9-1.6,3.8,3.8,0,0,0-2.3.9,2,2,0,0,0-.6,1.6,1.9,1.9,0,0,0,.8,1.4,12.8,12.8,0,0,0,2.7,1.3,52.2,52.2,0,0,1,5.5,2.4,10.4,10.4,0,0,1,3.3,2.7,6.9,6.9,0,0,1,1.4,4" transform="translate(0 0)" fill="#fff" fill-rule="evenodd"/>
      </g>
    </g>
  </g>
</svg>
