<?xml version="1.0" encoding="utf-8"?>
<!-- Generator: Adobe Illustrator 25.0.0, SVG Export Plug-In . SVG Version: 6.00 Build 0)  -->
<svg version="1.1" id="Capa_1" xmlns="http://www.w3.org/2000/svg" xmlns:xlink="http://www.w3.org/1999/xlink" x="0px" y="0px"
	 viewBox="0 0 205.5 42.7" style="enable-background:new 0 0 205.5 42.7;" xml:space="preserve">
<style type="text/css">
	.st0{fill:none;stroke:#E20613;}
	.st1{enable-background:new    ;}
	.st2{fill:#E20613;}
</style>
<path id="Trazado_8536" class="st0" d="M11.9,8.4c2.1-1.5,4.5-2.5,7-2.9V0.6C15.1,1,11.4,2.6,8.4,5L11.9,8.4z"/>
<path id="Trazado_8537" class="st0" d="M5.5,18.9c0.4-2.5,1.4-5,2.9-7L5,8.4c-2.4,3-4,6.7-4.4,10.5H5.5z"/>
<path id="Trazado_8538" class="st0" d="M37.8,8.4l-3.5,3.5c1.5,2.1,2.5,4.5,2.9,7h4.9C41.7,15.1,40.2,11.4,37.8,8.4z"/>
<path id="Trazado_8539" class="st0" d="M23.8,5.5c2.5,0.4,5,1.4,7,2.9l3.5-3.5c-3-2.3-6.6-3.9-10.5-4.3V5.5z"/>
<path id="Trazado_8540" class="st0" d="M37.2,23.8c-0.4,2.5-1.4,5-2.9,7l3.5,3.5c2.4-3,3.9-6.7,4.4-10.5H37.2z"/>
<path id="Trazado_8541" class="st0" d="M30.8,34.3c-2.1,1.5-4.5,2.5-7,2.9v4.9c3.8-0.4,7.5-2,10.5-4.4L30.8,34.3z"/>
<path id="Trazado_8542" class="st0" d="M8.4,30.8c-1.5-2.1-2.5-4.5-2.9-7H0.6c0.4,3.8,2,7.5,4.4,10.5L8.4,30.8z"/>
<path id="Trazado_8543" class="st0" d="M18.9,37.2c-2.5-0.4-5-1.4-7-2.9l-3.5,3.5c3,2.4,6.7,3.9,10.5,4.4V37.2L18.9,37.2z"/>
<g class="st1">
	<path class="st2" d="M61.2,15.8c0.9,0,1.7,0.2,2.5,0.6v1.5c-0.9-0.6-1.7-0.8-2.4-0.8c-0.4,0-0.8,0.1-1,0.3
		c-0.2,0.2-0.4,0.4-0.4,0.7c0,0.3,0.2,0.6,0.7,0.9c0.1,0.1,0.6,0.3,1.5,0.7c0.7,0.3,1.3,0.7,1.6,1.1c0.3,0.4,0.5,0.9,0.5,1.5
		c0,0.8-0.3,1.4-0.8,1.8c-0.5,0.5-1.3,0.7-2.1,0.7c-0.6,0-1.1-0.1-1.5-0.2c-0.4-0.1-0.9-0.3-1.4-0.6v-1.7c0.9,0.8,1.8,1.2,2.7,1.2
		c0.4,0,0.8-0.1,1-0.3s0.4-0.4,0.4-0.7c0-0.4-0.2-0.7-0.7-1c-0.4-0.2-0.9-0.4-1.4-0.7c-0.7-0.3-1.2-0.7-1.6-1.1
		c-0.3-0.4-0.5-0.9-0.5-1.5c0-0.7,0.3-1.3,0.8-1.8S60.3,15.8,61.2,15.8z"/>
	<path class="st2" d="M71.4,15.8c0.9,0,1.7,0.2,2.5,0.6c0.7,0.4,1.3,0.9,1.8,1.6s0.7,1.5,0.7,2.3c0,0.8-0.2,1.6-0.6,2.3
		c-0.4,0.7-1,1.3-1.8,1.7c-0.7,0.4-1.6,0.6-2.5,0.6c-0.9,0-1.8-0.2-2.5-0.6c-0.8-0.4-1.3-0.9-1.8-1.6s-0.6-1.5-0.6-2.3
		c0-0.8,0.2-1.6,0.6-2.3c0.4-0.7,1-1.3,1.7-1.7S70.5,15.8,71.4,15.8z M68.3,20.3c0,0.6,0.1,1.1,0.4,1.6s0.6,0.8,1.1,1.1
		c0.5,0.3,1,0.4,1.6,0.4c0.9,0,1.7-0.3,2.2-0.9c0.6-0.6,0.9-1.3,0.9-2.2c0-0.6-0.1-1.1-0.4-1.6c-0.3-0.5-0.6-0.8-1.1-1.1
		c-0.5-0.3-1-0.4-1.6-0.4s-1.1,0.1-1.6,0.4c-0.5,0.3-0.8,0.6-1.1,1.1S68.3,19.7,68.3,20.3z"/>
	<path class="st2" d="M82.5,15.9c0.8,0,1.5,0.2,2,0.6c0.5,0.4,0.8,1,0.8,1.6c0,0.4-0.1,0.8-0.3,1.1c-0.2,0.3-0.5,0.6-0.9,0.7V20
		c0.6,0.1,1.1,0.4,1.4,0.8c0.3,0.4,0.5,0.9,0.5,1.5c0,0.5-0.1,0.9-0.4,1.3c-0.3,0.4-0.6,0.7-1,0.9c-0.4,0.2-1,0.3-1.6,0.3h-3.7v-8.9
		H82.5z M82,19.6c0.5,0,0.8-0.1,1.1-0.3s0.4-0.5,0.4-0.9c0-0.3-0.1-0.6-0.4-0.8s-0.6-0.3-1-0.3h-1.2v2.3H82z M82.4,23.4
		c0.6,0,1-0.1,1.3-0.3s0.4-0.5,0.4-1c0-0.4-0.1-0.7-0.4-0.9c-0.3-0.2-0.7-0.3-1.2-0.3h-1.6v2.5H82.4z"/>
	<path class="st2" d="M91.9,15.9c0.8,0,1.5,0.2,2,0.7s0.8,1.1,0.8,1.8c0,0.5-0.1,0.9-0.4,1.3c-0.3,0.4-0.6,0.7-1.2,0.9
		c0.3,0.2,0.5,0.4,0.8,0.6c0.2,0.3,0.5,0.7,0.8,1.3c0.5,1.1,0.9,1.8,1.2,2.2H94c-0.1-0.2-0.3-0.5-0.5-0.9c-0.5-0.9-0.9-1.6-1.1-1.9
		s-0.4-0.6-0.7-0.7S91.3,21,91,21h-0.6v3.7h-1.7v-8.9H91.9z M91.5,19.7c0.4,0,0.8-0.1,1.1-0.3c0.3-0.2,0.4-0.5,0.4-0.9
		c0-0.4-0.1-0.7-0.4-0.9s-0.6-0.3-1.1-0.3h-1.1v2.5H91.5z"/>
	<path class="st2" d="M104.1,15.9v1.3h-4v2.3h3.8v1.3h-3.8v2.5h4.1v1.3h-5.8v-8.9H104.1z"/>
	<path class="st2" d="M115.4,15.9c0.8,0,1.5,0.2,2,0.7s0.8,1.1,0.8,1.9c0,0.8-0.3,1.4-0.8,1.9c-0.5,0.5-1.2,0.7-2.1,0.7h-1.7v3.7
		H112v-8.9H115.4z M115,19.7c0.5,0,0.8-0.1,1.1-0.3c0.3-0.2,0.4-0.5,0.4-0.9c0-0.8-0.5-1.2-1.6-1.2h-1.2v2.5H115z"/>
	<path class="st2" d="M122.6,15.9v7.5h4.3v1.3h-6v-8.9H122.6z"/>
	<path class="st2" d="M133.9,15.9l3.9,8.9H136l-0.9-2.2h-3.9l-0.9,2.2h-1.8l3.7-8.9H133.9z M131.6,21.3h2.9l-1.5-3.5L131.6,21.3z"/>
	<path class="st2" d="M141.6,15.9l5.3,6.2v-6.2h1.7v8.9h-1.5l-5.3-6.3v6.3h-1.7v-8.9H141.6z"/>
	<path class="st2" d="M156.4,15.8c0.9,0,1.7,0.2,2.5,0.6s1.3,0.9,1.8,1.6c0.4,0.7,0.7,1.5,0.7,2.3c0,0.8-0.2,1.6-0.6,2.3
		c-0.4,0.7-1,1.3-1.8,1.7c-0.7,0.4-1.6,0.6-2.5,0.6c-0.9,0-1.8-0.2-2.5-0.6c-0.8-0.4-1.3-0.9-1.8-1.6s-0.6-1.5-0.6-2.3
		c0-0.8,0.2-1.6,0.6-2.3c0.4-0.7,1-1.3,1.7-1.7S155.4,15.8,156.4,15.8z M153.2,20.3c0,0.6,0.1,1.1,0.4,1.6s0.6,0.8,1.1,1.1
		c0.5,0.3,1,0.4,1.6,0.4c0.9,0,1.7-0.3,2.2-0.9c0.6-0.6,0.9-1.3,0.9-2.2c0-0.6-0.1-1.1-0.4-1.6c-0.3-0.5-0.6-0.8-1.1-1.1
		c-0.5-0.3-1-0.4-1.6-0.4c-0.6,0-1.1,0.1-1.6,0.4c-0.5,0.3-0.8,0.6-1.1,1.1C153.4,19.2,153.2,19.7,153.2,20.3z"/>
	<path class="st2" d="M166.7,15.8c0.9,0,1.7,0.2,2.5,0.6v1.5c-0.9-0.6-1.7-0.8-2.4-0.8c-0.4,0-0.8,0.1-1,0.3s-0.4,0.4-0.4,0.7
		c0,0.3,0.2,0.6,0.7,0.9c0.1,0.1,0.6,0.3,1.5,0.7c0.7,0.3,1.3,0.7,1.6,1.1c0.3,0.4,0.5,0.9,0.5,1.5c0,0.8-0.3,1.4-0.8,1.8
		c-0.5,0.5-1.3,0.7-2.1,0.7c-0.6,0-1.1-0.1-1.5-0.2c-0.4-0.1-0.9-0.3-1.4-0.6v-1.7c0.9,0.8,1.8,1.2,2.7,1.2c0.4,0,0.8-0.1,1-0.3
		c0.3-0.2,0.4-0.4,0.4-0.7c0-0.4-0.2-0.7-0.7-1c-0.4-0.2-0.9-0.4-1.4-0.7c-0.7-0.3-1.2-0.7-1.6-1.1s-0.5-0.9-0.5-1.5
		c0-0.7,0.3-1.3,0.8-1.8C165.1,16,165.8,15.8,166.7,15.8z"/>
</g>
</svg>
